%TF.GenerationSoftware,KiCad,Pcbnew,8.0.4*%
%TF.CreationDate,2024-08-26T07:10:41+02:00*%
%TF.ProjectId,Audio_Digitizer,41756469-6f5f-4446-9967-6974697a6572,rev?*%
%TF.SameCoordinates,Original*%
%TF.FileFunction,Soldermask,Top*%
%TF.FilePolarity,Negative*%
%FSLAX46Y46*%
G04 Gerber Fmt 4.6, Leading zero omitted, Abs format (unit mm)*
G04 Created by KiCad (PCBNEW 8.0.4) date 2024-08-26 07:10:41*
%MOMM*%
%LPD*%
G01*
G04 APERTURE LIST*
G04 Aperture macros list*
%AMRoundRect*
0 Rectangle with rounded corners*
0 $1 Rounding radius*
0 $2 $3 $4 $5 $6 $7 $8 $9 X,Y pos of 4 corners*
0 Add a 4 corners polygon primitive as box body*
4,1,4,$2,$3,$4,$5,$6,$7,$8,$9,$2,$3,0*
0 Add four circle primitives for the rounded corners*
1,1,$1+$1,$2,$3*
1,1,$1+$1,$4,$5*
1,1,$1+$1,$6,$7*
1,1,$1+$1,$8,$9*
0 Add four rect primitives between the rounded corners*
20,1,$1+$1,$2,$3,$4,$5,0*
20,1,$1+$1,$4,$5,$6,$7,0*
20,1,$1+$1,$6,$7,$8,$9,0*
20,1,$1+$1,$8,$9,$2,$3,0*%
%AMFreePoly0*
4,1,33,0.406248,0.082068,0.376251,0.079070,0.315240,0.067082,0.276251,0.054077,0.241250,0.041072,0.180239,0.006071,0.143256,-0.019939,0.109246,-0.050927,0.062256,-0.105918,0.014249,-0.176937,-0.012751,-0.251918,-0.028753,-0.338938,-0.279756,-0.339929,-0.273762,-0.279934,-0.263754,-0.221920,-0.246761,-0.158928,-0.219761,-0.088926,-0.196749,-0.041935,-0.175743,-0.005918,-0.153747,0.029083,
-0.131750,0.059081,-0.106756,0.089078,-0.071755,0.127076,-0.032741,0.164084,0.016256,0.203073,0.064237,0.235077,0.110236,0.261062,0.147244,0.279070,0.214249,0.304064,0.274244,0.321082,0.343256,0.334061,0.406248,0.340081,0.406248,0.082068,0.406248,0.082068,$1*%
%AMFreePoly1*
4,1,33,-0.079070,0.376505,-0.067082,0.315494,-0.054077,0.276505,-0.041072,0.241504,-0.006071,0.180493,0.019939,0.143510,0.050927,0.109500,0.105918,0.062510,0.176937,0.014503,0.251918,-0.012497,0.338938,-0.028499,0.339929,-0.279502,0.279934,-0.273508,0.221920,-0.263500,0.158928,-0.246507,0.088926,-0.219507,0.041935,-0.196495,0.005918,-0.175489,-0.029083,-0.153493,-0.059081,-0.131496,
-0.089078,-0.106502,-0.127076,-0.071501,-0.164084,-0.032487,-0.203073,0.016510,-0.235077,0.064491,-0.261062,0.110490,-0.279070,0.147498,-0.304064,0.214503,-0.321082,0.274498,-0.334061,0.343510,-0.340081,0.406502,-0.082068,0.406502,-0.079070,0.376505,-0.079070,0.376505,$1*%
%AMFreePoly2*
4,1,33,-0.279934,0.273762,-0.221920,0.263754,-0.158928,0.246761,-0.088926,0.219761,-0.041935,0.196749,-0.005918,0.175743,0.029083,0.153747,0.059081,0.131750,0.089078,0.106756,0.127076,0.071755,0.164084,0.032741,0.203073,-0.016256,0.235077,-0.064237,0.261062,-0.110236,0.279070,-0.147244,0.304064,-0.214249,0.321082,-0.274244,0.334061,-0.343256,0.340081,-0.406248,0.082068,-0.406248,
0.079070,-0.376251,0.067082,-0.315240,0.054077,-0.276251,0.041072,-0.241250,0.006071,-0.180239,-0.019939,-0.143256,-0.050927,-0.109246,-0.105918,-0.062256,-0.176937,-0.014249,-0.251918,0.012751,-0.338938,0.028753,-0.339929,0.279756,-0.279934,0.273762,-0.279934,0.273762,$1*%
%AMFreePoly3*
4,1,33,0.273508,0.279934,0.263500,0.221920,0.246507,0.158928,0.219507,0.088926,0.196495,0.041935,0.175489,0.005918,0.153493,-0.029083,0.131496,-0.059081,0.106502,-0.089078,0.071501,-0.127076,0.032487,-0.164084,-0.016510,-0.203073,-0.064491,-0.235077,-0.110490,-0.261062,-0.147498,-0.279070,-0.214503,-0.304064,-0.274498,-0.321082,-0.343510,-0.334061,-0.406502,-0.340081,-0.406502,-0.082068,
-0.376505,-0.079070,-0.315494,-0.067082,-0.276505,-0.054077,-0.241504,-0.041072,-0.180493,-0.006071,-0.143510,0.019939,-0.109500,0.050927,-0.062510,0.105918,-0.014503,0.176937,0.012497,0.251918,0.028499,0.338938,0.279502,0.339929,0.273508,0.279934,0.273508,0.279934,$1*%
G04 Aperture macros list end*
%ADD10RoundRect,0.135000X0.135000X0.185000X-0.135000X0.185000X-0.135000X-0.185000X0.135000X-0.185000X0*%
%ADD11RoundRect,0.225000X-0.250000X0.225000X-0.250000X-0.225000X0.250000X-0.225000X0.250000X0.225000X0*%
%ADD12RoundRect,0.140000X0.140000X0.170000X-0.140000X0.170000X-0.140000X-0.170000X0.140000X-0.170000X0*%
%ADD13RoundRect,0.140000X-0.140000X-0.170000X0.140000X-0.170000X0.140000X0.170000X-0.140000X0.170000X0*%
%ADD14RoundRect,0.135000X-0.185000X0.135000X-0.185000X-0.135000X0.185000X-0.135000X0.185000X0.135000X0*%
%ADD15RoundRect,0.140000X0.170000X-0.140000X0.170000X0.140000X-0.170000X0.140000X-0.170000X-0.140000X0*%
%ADD16RoundRect,0.225000X0.250000X-0.225000X0.250000X0.225000X-0.250000X0.225000X-0.250000X-0.225000X0*%
%ADD17C,1.500000*%
%ADD18RoundRect,0.225000X-0.225000X-0.250000X0.225000X-0.250000X0.225000X0.250000X-0.225000X0.250000X0*%
%ADD19C,0.500025*%
%ADD20R,0.600000X0.400000*%
%ADD21R,0.600000X0.300000*%
%ADD22FreePoly0,90.000000*%
%ADD23FreePoly1,90.000000*%
%ADD24FreePoly2,90.000000*%
%ADD25FreePoly3,90.000000*%
%ADD26R,0.400000X0.600000*%
%ADD27R,0.300000X0.600000*%
%ADD28FreePoly0,180.000000*%
%ADD29FreePoly1,180.000000*%
%ADD30FreePoly2,180.000000*%
%ADD31FreePoly3,180.000000*%
%ADD32RoundRect,0.135000X-0.135000X-0.185000X0.135000X-0.185000X0.135000X0.185000X-0.135000X0.185000X0*%
%ADD33RoundRect,0.225000X0.225000X0.250000X-0.225000X0.250000X-0.225000X-0.250000X0.225000X-0.250000X0*%
%ADD34RoundRect,0.062500X-0.375000X-0.062500X0.375000X-0.062500X0.375000X0.062500X-0.375000X0.062500X0*%
%ADD35RoundRect,0.062500X-0.062500X-0.375000X0.062500X-0.375000X0.062500X0.375000X-0.062500X0.375000X0*%
%ADD36R,1.600000X1.600000*%
%ADD37RoundRect,0.140000X-0.170000X0.140000X-0.170000X-0.140000X0.170000X-0.140000X0.170000X0.140000X0*%
%ADD38RoundRect,0.200000X-0.275000X0.200000X-0.275000X-0.200000X0.275000X-0.200000X0.275000X0.200000X0*%
%ADD39R,1.400000X1.200000*%
%ADD40R,1.700000X1.700000*%
%ADD41O,1.700000X1.700000*%
%ADD42RoundRect,0.075000X-0.662500X-0.075000X0.662500X-0.075000X0.662500X0.075000X-0.662500X0.075000X0*%
%ADD43RoundRect,0.135000X0.185000X-0.135000X0.185000X0.135000X-0.185000X0.135000X-0.185000X-0.135000X0*%
%ADD44RoundRect,0.062500X0.375000X0.062500X-0.375000X0.062500X-0.375000X-0.062500X0.375000X-0.062500X0*%
%ADD45RoundRect,0.062500X0.062500X0.375000X-0.062500X0.375000X-0.062500X-0.375000X0.062500X-0.375000X0*%
%ADD46R,0.600000X0.600000*%
%ADD47RoundRect,0.200000X0.275000X-0.200000X0.275000X0.200000X-0.275000X0.200000X-0.275000X-0.200000X0*%
G04 APERTURE END LIST*
D10*
%TO.C,R16*%
X198520000Y-129580000D03*
X197500000Y-129580000D03*
%TD*%
D11*
%TO.C,C19*%
X204500000Y-84900000D03*
X204500000Y-86450000D03*
%TD*%
D12*
%TO.C,C44*%
X198180000Y-122880000D03*
X197220000Y-122880000D03*
%TD*%
%TO.C,C49*%
X165050000Y-130000000D03*
X164090000Y-130000000D03*
%TD*%
D13*
%TO.C,C3*%
X205970000Y-72100000D03*
X206930000Y-72100000D03*
%TD*%
D14*
%TO.C,R27*%
X176800000Y-138000000D03*
X176800000Y-139020000D03*
%TD*%
D15*
%TO.C,C28*%
X192800000Y-133010000D03*
X192800000Y-132050000D03*
%TD*%
D11*
%TO.C,C22*%
X195200000Y-84575000D03*
X195200000Y-86125000D03*
%TD*%
D15*
%TO.C,C57*%
X163350000Y-133930000D03*
X163350000Y-132970000D03*
%TD*%
D16*
%TO.C,C34*%
X196000000Y-119730000D03*
X196000000Y-118180000D03*
%TD*%
D17*
%TO.C,TP1*%
X172070000Y-83430000D03*
%TD*%
D11*
%TO.C,C23*%
X201350000Y-84725000D03*
X201350000Y-86275000D03*
%TD*%
D15*
%TO.C,C26*%
X128250000Y-124059975D03*
X128250000Y-123099975D03*
%TD*%
D16*
%TO.C,C60*%
X156400000Y-136075000D03*
X156400000Y-134525000D03*
%TD*%
D18*
%TO.C,C47*%
X154025000Y-125400000D03*
X155575000Y-125400000D03*
%TD*%
D10*
%TO.C,R20*%
X185160000Y-129450000D03*
X184140000Y-129450000D03*
%TD*%
D19*
%TO.C,U7*%
X213629883Y-76299987D03*
D20*
X212050000Y-75650000D03*
D21*
X212050000Y-76299987D03*
D20*
X212050000Y-76949974D03*
D22*
X213205956Y-76778778D03*
D23*
X214108928Y-76723914D03*
D24*
X213151092Y-75876060D03*
D25*
X214053810Y-75820942D03*
%TD*%
D13*
%TO.C,C36*%
X134620000Y-126450000D03*
X135580000Y-126450000D03*
%TD*%
D12*
%TO.C,C51*%
X166600000Y-127300000D03*
X165640000Y-127300000D03*
%TD*%
D19*
%TO.C,U3*%
X178529045Y-68623927D03*
D26*
X177879058Y-70203810D03*
D27*
X178529045Y-70203810D03*
D26*
X179179032Y-70203810D03*
D28*
X179007836Y-69047854D03*
D29*
X178952972Y-68144882D03*
D30*
X178105118Y-69102718D03*
D31*
X178050000Y-68200000D03*
%TD*%
D32*
%TO.C,R11*%
X142090000Y-127700000D03*
X143110000Y-127700000D03*
%TD*%
%TO.C,R26*%
X181330000Y-134450000D03*
X182350000Y-134450000D03*
%TD*%
D19*
%TO.C,U5*%
X166029045Y-74973927D03*
D26*
X165379058Y-76553810D03*
D27*
X166029045Y-76553810D03*
D26*
X166679032Y-76553810D03*
D28*
X166507836Y-75397854D03*
D29*
X166452972Y-74494882D03*
D30*
X165605118Y-75452718D03*
D31*
X165550000Y-74550000D03*
%TD*%
D11*
%TO.C,C35*%
X143500000Y-134050000D03*
X143500000Y-135600000D03*
%TD*%
D17*
%TO.C,TP8*%
X145600000Y-91500000D03*
%TD*%
D33*
%TO.C,C48*%
X188950000Y-126700000D03*
X187400000Y-126700000D03*
%TD*%
D34*
%TO.C,U11*%
X144800000Y-125400000D03*
X144800000Y-125900000D03*
X144800000Y-126400000D03*
X144800000Y-126900000D03*
D35*
X145487500Y-127587500D03*
X145987500Y-127587500D03*
X146487500Y-127587500D03*
X146987500Y-127587500D03*
D34*
X147675000Y-126900000D03*
X147675000Y-126400000D03*
X147675000Y-125900000D03*
X147675000Y-125400000D03*
D35*
X146987500Y-124712500D03*
X146487500Y-124712500D03*
X145987500Y-124712500D03*
X145487500Y-124712500D03*
D36*
X146237500Y-126150000D03*
%TD*%
D32*
%TO.C,R17*%
X158780000Y-127800000D03*
X159800000Y-127800000D03*
%TD*%
D37*
%TO.C,C33*%
X145800000Y-129820000D03*
X145800000Y-130780000D03*
%TD*%
D14*
%TO.C,R4*%
X196450000Y-98690000D03*
X196450000Y-99710000D03*
%TD*%
D38*
%TO.C,R7*%
X150950000Y-121650000D03*
X150950000Y-123300000D03*
%TD*%
D39*
%TO.C,X2*%
X163625000Y-146950000D03*
X165825000Y-146950000D03*
X165825000Y-145250000D03*
X163625000Y-145250000D03*
%TD*%
D19*
%TO.C,U6*%
X187079045Y-65473927D03*
D26*
X186429058Y-67053810D03*
D27*
X187079045Y-67053810D03*
D26*
X187729032Y-67053810D03*
D28*
X187557836Y-65897854D03*
D29*
X187502972Y-64994882D03*
D30*
X186655118Y-65952718D03*
D31*
X186600000Y-65050000D03*
%TD*%
D15*
%TO.C,C12*%
X162240000Y-76710000D03*
X162240000Y-75750000D03*
%TD*%
%TO.C,C17*%
X186330000Y-104110000D03*
X186330000Y-103150000D03*
%TD*%
D32*
%TO.C,R25*%
X181880000Y-132750000D03*
X182900000Y-132750000D03*
%TD*%
D40*
%TO.C,J3*%
X217750000Y-97450000D03*
D41*
X217750000Y-94910000D03*
X217750000Y-92370000D03*
X217750000Y-89830000D03*
%TD*%
D15*
%TO.C,C55*%
X177000000Y-130110000D03*
X177000000Y-129150000D03*
%TD*%
D11*
%TO.C,C15*%
X183400000Y-84150000D03*
X183400000Y-85700000D03*
%TD*%
D17*
%TO.C,TP5*%
X142050000Y-83750000D03*
%TD*%
D19*
%TO.C,U2*%
X195926073Y-65129045D03*
D26*
X195276086Y-66708928D03*
D27*
X195926073Y-66708928D03*
D26*
X196576060Y-66708928D03*
D28*
X196404864Y-65552972D03*
D29*
X196350000Y-64650000D03*
D30*
X195502146Y-65607836D03*
D31*
X195447028Y-64705118D03*
%TD*%
D18*
%TO.C,C61*%
X159825000Y-131600000D03*
X161375000Y-131600000D03*
%TD*%
D12*
%TO.C,C45*%
X198560000Y-130980000D03*
X197600000Y-130980000D03*
%TD*%
D42*
%TO.C,U14*%
X167337500Y-129100000D03*
X167337500Y-129600000D03*
X167337500Y-130100000D03*
X167337500Y-130600000D03*
X167337500Y-131100000D03*
X167337500Y-131600000D03*
X167337500Y-132100000D03*
X167337500Y-132600000D03*
X167337500Y-133100000D03*
X167337500Y-133600000D03*
X167337500Y-134100000D03*
X167337500Y-134600000D03*
X167337500Y-135100000D03*
X167337500Y-135600000D03*
X167337500Y-136100000D03*
X173062500Y-136100000D03*
X173062500Y-135600000D03*
X173062500Y-135100000D03*
X173062500Y-134600000D03*
X173062500Y-134100000D03*
X173062500Y-133600000D03*
X173062500Y-133100000D03*
X173062500Y-132600000D03*
X173062500Y-132100000D03*
X173062500Y-131600000D03*
X173062500Y-131100000D03*
X173062500Y-130600000D03*
X173062500Y-130100000D03*
X173062500Y-129600000D03*
X173062500Y-129100000D03*
%TD*%
D19*
%TO.C,U4*%
X214323927Y-83921209D03*
D20*
X212744044Y-83271222D03*
D21*
X212744044Y-83921209D03*
D20*
X212744044Y-84571196D03*
D22*
X213900000Y-84400000D03*
D23*
X214802972Y-84345136D03*
D24*
X213845136Y-83497282D03*
D25*
X214747854Y-83442164D03*
%TD*%
D11*
%TO.C,C16*%
X189700000Y-84000000D03*
X189700000Y-85550000D03*
%TD*%
D40*
%TO.C,J5*%
X218050000Y-143600000D03*
D41*
X218050000Y-146140000D03*
%TD*%
D13*
%TO.C,C1*%
X212740000Y-72950000D03*
X213700000Y-72950000D03*
%TD*%
D14*
%TO.C,R24*%
X175400000Y-137980000D03*
X175400000Y-139000000D03*
%TD*%
D42*
%TO.C,U9*%
X189375000Y-89150000D03*
X189375000Y-89650000D03*
X189375000Y-90150000D03*
X189375000Y-90650000D03*
X189375000Y-91150000D03*
X189375000Y-91650000D03*
X189375000Y-92150000D03*
X189375000Y-92650000D03*
X189375000Y-93150000D03*
X189375000Y-93650000D03*
X189375000Y-94150000D03*
X189375000Y-94650000D03*
X189375000Y-95150000D03*
X189375000Y-95650000D03*
X189375000Y-96150000D03*
X195100000Y-96150000D03*
X195100000Y-95650000D03*
X195100000Y-95150000D03*
X195100000Y-94650000D03*
X195100000Y-94150000D03*
X195100000Y-93650000D03*
X195100000Y-93150000D03*
X195100000Y-92650000D03*
X195100000Y-92150000D03*
X195100000Y-91650000D03*
X195100000Y-91150000D03*
X195100000Y-90650000D03*
X195100000Y-90150000D03*
X195100000Y-89650000D03*
X195100000Y-89150000D03*
%TD*%
D10*
%TO.C,R5*%
X207150000Y-88600000D03*
X206130000Y-88600000D03*
%TD*%
D15*
%TO.C,C43*%
X197800000Y-127940000D03*
X197800000Y-126980000D03*
%TD*%
%TO.C,C7*%
X192320000Y-66810000D03*
X192320000Y-65850000D03*
%TD*%
D14*
%TO.C,R23*%
X173000000Y-137850000D03*
X173000000Y-138870000D03*
%TD*%
D32*
%TO.C,R18*%
X158580000Y-125600000D03*
X159600000Y-125600000D03*
%TD*%
D37*
%TO.C,C31*%
X147400000Y-129920000D03*
X147400000Y-130880000D03*
%TD*%
D14*
%TO.C,R3*%
X195000000Y-98700000D03*
X195000000Y-99720000D03*
%TD*%
%TO.C,R22*%
X167250000Y-138940000D03*
X167250000Y-139960000D03*
%TD*%
D15*
%TO.C,C58*%
X164500000Y-136480000D03*
X164500000Y-135520000D03*
%TD*%
D11*
%TO.C,C11*%
X177750000Y-93675000D03*
X177750000Y-95225000D03*
%TD*%
D37*
%TO.C,C6*%
X185850000Y-92790000D03*
X185850000Y-93750000D03*
%TD*%
D14*
%TO.C,R2*%
X189400000Y-98600000D03*
X189400000Y-99620000D03*
%TD*%
D11*
%TO.C,C8*%
X184250000Y-98650000D03*
X184250000Y-100200000D03*
%TD*%
D37*
%TO.C,C32*%
X212900000Y-128990000D03*
X212900000Y-129950000D03*
%TD*%
D17*
%TO.C,TP2*%
X134810000Y-120050000D03*
%TD*%
D12*
%TO.C,C38*%
X204830000Y-128550000D03*
X203870000Y-128550000D03*
%TD*%
D13*
%TO.C,C27*%
X187750000Y-123450000D03*
X188710000Y-123450000D03*
%TD*%
D40*
%TO.C,J2*%
X217450000Y-119725000D03*
D41*
X217450000Y-117185000D03*
X217450000Y-114645000D03*
X217450000Y-112105000D03*
X217450000Y-109565000D03*
X217450000Y-107025000D03*
X217450000Y-104485000D03*
%TD*%
D11*
%TO.C,C50*%
X163150000Y-126825000D03*
X163150000Y-128375000D03*
%TD*%
D19*
%TO.C,U1*%
X206878791Y-74373927D03*
D20*
X205298908Y-73723940D03*
D21*
X205298908Y-74373927D03*
D20*
X205298908Y-75023914D03*
D22*
X206454864Y-74852718D03*
D23*
X207357836Y-74797854D03*
D24*
X206400000Y-73950000D03*
D25*
X207302718Y-73894882D03*
%TD*%
D43*
%TO.C,R21*%
X159900000Y-147560000D03*
X159900000Y-146540000D03*
%TD*%
D13*
%TO.C,C10*%
X203040000Y-66010000D03*
X204000000Y-66010000D03*
%TD*%
D16*
%TO.C,C59*%
X163000000Y-139875000D03*
X163000000Y-138325000D03*
%TD*%
D44*
%TO.C,U13*%
X195000000Y-128180000D03*
X195000000Y-127680000D03*
X195000000Y-127180000D03*
X195000000Y-126680000D03*
D45*
X194312500Y-125992500D03*
X193812500Y-125992500D03*
X193312500Y-125992500D03*
X192812500Y-125992500D03*
D44*
X192125000Y-126680000D03*
X192125000Y-127180000D03*
X192125000Y-127680000D03*
X192125000Y-128180000D03*
D45*
X192812500Y-128867500D03*
X193312500Y-128867500D03*
X193812500Y-128867500D03*
X194312500Y-128867500D03*
D36*
X193562500Y-127430000D03*
%TD*%
D14*
%TO.C,R1*%
X184750000Y-106740000D03*
X184750000Y-107760000D03*
%TD*%
D15*
%TO.C,C5*%
X174470000Y-70130000D03*
X174470000Y-69170000D03*
%TD*%
D10*
%TO.C,R15*%
X198310000Y-124880000D03*
X197290000Y-124880000D03*
%TD*%
D18*
%TO.C,C46*%
X153900000Y-127700000D03*
X155450000Y-127700000D03*
%TD*%
D37*
%TO.C,C40*%
X142300000Y-125300000D03*
X142300000Y-126260000D03*
%TD*%
D16*
%TO.C,C54*%
X180300000Y-129525000D03*
X180300000Y-127975000D03*
%TD*%
D15*
%TO.C,C24*%
X150700000Y-129760000D03*
X150700000Y-128800000D03*
%TD*%
D43*
%TO.C,R28*%
X212250000Y-147070000D03*
X212250000Y-146050000D03*
%TD*%
D13*
%TO.C,C41*%
X142040000Y-129300000D03*
X143000000Y-129300000D03*
%TD*%
D11*
%TO.C,C18*%
X197900000Y-84550000D03*
X197900000Y-86100000D03*
%TD*%
D10*
%TO.C,R14*%
X201020000Y-128580000D03*
X200000000Y-128580000D03*
%TD*%
D14*
%TO.C,R29*%
X212350000Y-143100000D03*
X212350000Y-144120000D03*
%TD*%
D46*
%TO.C,U10*%
X131100000Y-124050000D03*
X131100000Y-122060033D03*
X130049962Y-122060033D03*
X130049962Y-124050000D03*
%TD*%
D40*
%TO.C,J6*%
X172820000Y-147650000D03*
D41*
X175360000Y-147650000D03*
X177900000Y-147650000D03*
X180440000Y-147650000D03*
X182980000Y-147650000D03*
X185520000Y-147650000D03*
X188060000Y-147650000D03*
X190600000Y-147650000D03*
%TD*%
D33*
%TO.C,C52*%
X188750000Y-129500000D03*
X187200000Y-129500000D03*
%TD*%
D11*
%TO.C,C14*%
X182550000Y-94700000D03*
X182550000Y-96250000D03*
%TD*%
D17*
%TO.C,TP7*%
X154200000Y-122050000D03*
%TD*%
D32*
%TO.C,R12*%
X141990000Y-123800000D03*
X143010000Y-123800000D03*
%TD*%
D15*
%TO.C,C9*%
X182940000Y-67190000D03*
X182940000Y-66230000D03*
%TD*%
%TO.C,C30*%
X194000000Y-122340000D03*
X194000000Y-121380000D03*
%TD*%
D46*
%TO.C,U12*%
X209199962Y-128760033D03*
X209199962Y-130750000D03*
X210250000Y-130750000D03*
X210250000Y-128760033D03*
%TD*%
D13*
%TO.C,C2*%
X213130000Y-80820000D03*
X214090000Y-80820000D03*
%TD*%
D19*
%TO.C,U8*%
X204479883Y-69099987D03*
D20*
X202900000Y-68450000D03*
D21*
X202900000Y-69099987D03*
D20*
X202900000Y-69749974D03*
D22*
X204055956Y-69578778D03*
D23*
X204958928Y-69523914D03*
D24*
X204001092Y-68676060D03*
D25*
X204903810Y-68620942D03*
%TD*%
D11*
%TO.C,C21*%
X186450000Y-84075000D03*
X186450000Y-85625000D03*
%TD*%
D32*
%TO.C,R10*%
X139280000Y-124800000D03*
X140300000Y-124800000D03*
%TD*%
D39*
%TO.C,X1*%
X188175000Y-107650000D03*
X190375000Y-107650000D03*
X190375000Y-105950000D03*
X188175000Y-105950000D03*
%TD*%
D14*
%TO.C,R6*%
X199100000Y-98380000D03*
X199100000Y-99400000D03*
%TD*%
D13*
%TO.C,C37*%
X134540000Y-124900000D03*
X135500000Y-124900000D03*
%TD*%
D32*
%TO.C,R9*%
X139080000Y-126600000D03*
X140100000Y-126600000D03*
%TD*%
D40*
%TO.C,J1*%
X149010000Y-147450000D03*
D41*
X151550000Y-147450000D03*
%TD*%
D40*
%TO.C,J4*%
X122400000Y-113940000D03*
D41*
X122400000Y-111400000D03*
X122400000Y-108860000D03*
X122400000Y-106320000D03*
%TD*%
D47*
%TO.C,R8*%
X189650000Y-133625000D03*
X189650000Y-131975000D03*
%TD*%
D10*
%TO.C,R13*%
X200820000Y-126680000D03*
X199800000Y-126680000D03*
%TD*%
D37*
%TO.C,C25*%
X147700000Y-122120000D03*
X147700000Y-123080000D03*
%TD*%
D33*
%TO.C,C13*%
X183525000Y-91550000D03*
X181975000Y-91550000D03*
%TD*%
D11*
%TO.C,C20*%
X181250000Y-84275000D03*
X181250000Y-85825000D03*
%TD*%
D15*
%TO.C,C53*%
X176400000Y-127580000D03*
X176400000Y-126620000D03*
%TD*%
D37*
%TO.C,C4*%
X186400000Y-96340000D03*
X186400000Y-97300000D03*
%TD*%
D17*
%TO.C,TP4*%
X122780000Y-122530000D03*
%TD*%
D12*
%TO.C,C39*%
X204910000Y-126800000D03*
X203950000Y-126800000D03*
%TD*%
D13*
%TO.C,C42*%
X142020000Y-122100000D03*
X142980000Y-122100000D03*
%TD*%
D17*
%TO.C,TP6*%
X154000000Y-132150000D03*
%TD*%
D10*
%TO.C,R19*%
X184350000Y-126900000D03*
X183330000Y-126900000D03*
%TD*%
D15*
%TO.C,C29*%
X191500000Y-122360000D03*
X191500000Y-121400000D03*
%TD*%
D13*
%TO.C,C56*%
X160240000Y-144300000D03*
X161200000Y-144300000D03*
%TD*%
D18*
%TO.C,C62*%
X159725000Y-135300000D03*
X161275000Y-135300000D03*
%TD*%
D17*
%TO.C,TP3*%
X122800000Y-92600000D03*
%TD*%
M02*
