M48
; DRILL file {KiCad 8.0.4} date 2024-08-26T07:10:48+0200
; FORMAT={-:-/ absolute / inch / decimal}
; #@! TF.CreationDate,2024-08-26T07:10:48+02:00
; #@! TF.GenerationSoftware,Kicad,Pcbnew,8.0.4
; #@! TF.FileFunction,Plated,1,2,PTH
FMAT,2
INCH
; #@! TA.AperFunction,Plated,PTH,ViaDrill
T1C0.0118
; #@! TA.AperFunction,Plated,PTH,ComponentDrill
T2C0.0394
%
G90
G05
T1
X5.0472Y-4.7618
X5.124Y-4.7264
X5.1634Y-4.7323
X5.189Y-4.9783
X5.6496Y-5.4213
X5.7283Y-4.8287
X5.7303Y-3.2953
X5.7402Y-5.2165
X5.8051Y-5.2362
X5.8169Y-4.7461
X5.8583Y-4.6752
X5.935Y-5.1654
X5.9862Y-3.6024
X6.0039Y-5.5098
X6.1555Y-5.4193
X6.2126Y-5.4665
X6.2205Y-5.1772
X6.2343Y-5.6811
X6.2894Y-5.2657
X6.3307Y-5.5079
X6.3642Y-5.2717
X6.3858Y-5.1161
X6.387Y-2.9327
X6.4941Y-5.4173
X6.5177Y-2.874
X6.5236Y-5.3051
X6.5354Y-3.0827
X6.5551Y-2.8661
X6.5886Y-5.8268
X6.6299Y-5.0059
X6.8689Y-2.6594
X6.9055Y-4.9331
X6.9961Y-2.8602
X6.998Y-3.8346
X6.998Y-4.3819
X7.0079Y-2.6181
X7.0354Y-5.1457
X7.0453Y-2.6122
X7.0689Y-3.6043
X7.1102Y-3.7854
X7.185Y-3.9469
X7.2039Y-2.5433
X7.2165Y-4.0591
X7.2461Y-3.6831
X7.3051Y-5.2244
X7.3287Y-4.8602
X7.3445Y-2.4823
X7.3465Y-2.7185
X7.3543Y-3.876
X7.3543Y-5.437
X7.3599Y-3.7408
X7.3839Y-2.4882
X7.4606Y-4.7756
X7.4941Y-4.3642
X7.5709Y-2.5213
X7.5906Y-5.2972
X7.6166Y-5.1299
X7.687Y-2.7087
X7.6929Y-2.4508
X7.7323Y-2.4469
X7.8051Y-4.6516
X7.878Y-2.7185
X8.1146Y-2.598
X8.1339Y-2.7008
X8.1398Y-2.7362
X8.1535Y-4.9902
X8.2106Y-2.8386
X8.2283Y-2.9449
X8.2343Y-2.9094
X8.2343Y-5.2028
X8.2717Y-2.998
X8.2776Y-5.1988
X8.3819Y-5.189
X8.4193Y-3.378
X8.4567Y-3.3858
X8.4803Y-2.872
X8.4835Y-3.1803
X8.5138Y-2.9843
X8.5276Y-3.0197
X8.5374Y-3.2835
T2
X4.8189Y-4.1858
X4.8189Y-4.2858
X4.8189Y-4.3858
X4.8189Y-4.4858
X5.8665Y-5.8051
X5.9665Y-5.8051
X6.8039Y-5.813
X6.9039Y-5.813
X7.0039Y-5.813
X7.1039Y-5.813
X7.2039Y-5.813
X7.3039Y-5.813
X7.4039Y-5.813
X7.5039Y-5.813
X8.561Y-4.1136
X8.561Y-4.2136
X8.561Y-4.3136
X8.561Y-4.4136
X8.561Y-4.5136
X8.561Y-4.6136
X8.561Y-4.7136
X8.5728Y-3.5366
X8.5728Y-3.6366
X8.5728Y-3.7366
X8.5728Y-3.8366
X8.5846Y-5.6535
X8.5846Y-5.7535
M30
