%TF.GenerationSoftware,KiCad,Pcbnew,8.0.4*%
%TF.CreationDate,2024-09-07T22:41:42+02:00*%
%TF.ProjectId,PCB,5043422e-6b69-4636-9164-5f7063625858,rev?*%
%TF.SameCoordinates,Original*%
%TF.FileFunction,Copper,L1,Top*%
%TF.FilePolarity,Positive*%
%FSLAX46Y46*%
G04 Gerber Fmt 4.6, Leading zero omitted, Abs format (unit mm)*
G04 Created by KiCad (PCBNEW 8.0.4) date 2024-09-07 22:41:42*
%MOMM*%
%LPD*%
G01*
G04 APERTURE LIST*
%TA.AperFunction,ComponentPad*%
%ADD10C,1.400000*%
%TD*%
%TA.AperFunction,ComponentPad*%
%ADD11O,1.400000X1.400000*%
%TD*%
%TA.AperFunction,ComponentPad*%
%ADD12R,1.700000X1.700000*%
%TD*%
%TA.AperFunction,ComponentPad*%
%ADD13O,1.700000X1.700000*%
%TD*%
%TA.AperFunction,SMDPad,CuDef*%
%ADD14R,1.100000X0.800000*%
%TD*%
%TA.AperFunction,SMDPad,CuDef*%
%ADD15R,2.700000X1.200000*%
%TD*%
%TA.AperFunction,ViaPad*%
%ADD16C,0.600000*%
%TD*%
%TA.AperFunction,Conductor*%
%ADD17C,0.300000*%
%TD*%
G04 APERTURE END LIST*
D10*
%TO.P,R2,1*%
%TO.N,+3.3V*%
X155610000Y-93140000D03*
D11*
%TO.P,R2,2*%
%TO.N,/SDA*%
X155610000Y-88060000D03*
%TD*%
%TO.P,R1,2*%
%TO.N,/SCL*%
X151860000Y-88090000D03*
D10*
%TO.P,R1,1*%
%TO.N,+3.3V*%
X151860000Y-93170000D03*
%TD*%
D12*
%TO.P,J3,1,Pin_1*%
%TO.N,GND*%
X190730000Y-78600000D03*
D13*
%TO.P,J3,2,Pin_2*%
X190730000Y-81140000D03*
%TO.P,J3,3,Pin_3*%
%TO.N,/SD*%
X190730000Y-83680000D03*
%TO.P,J3,4,Pin_4*%
%TO.N,/FS*%
X190730000Y-86220000D03*
%TO.P,J3,5,Pin_5*%
%TO.N,+3.3V*%
X190730000Y-88760000D03*
%TO.P,J3,6,Pin_6*%
%TO.N,/VIN*%
X190730000Y-91300000D03*
%TD*%
D12*
%TO.P,J2,1,Pin_1*%
%TO.N,/SCL*%
X145450000Y-86870000D03*
D13*
%TO.P,J2,2,Pin_2*%
%TO.N,/SDA*%
X145450000Y-84330000D03*
%TO.P,J2,3,Pin_3*%
%TO.N,/SCK*%
X145450000Y-81790000D03*
%TO.P,J2,4,Pin_4*%
%TO.N,/MCLK*%
X145450000Y-79250000D03*
%TD*%
D14*
%TO.P,J1,A1,A1*%
%TO.N,/VIN*%
X179270000Y-87930000D03*
%TO.P,J1,A2,A2*%
%TO.N,+3.3V*%
X179270000Y-86660000D03*
%TO.P,J1,A3,A3*%
%TO.N,/FS*%
X179270000Y-85390000D03*
%TO.P,J1,A4,A4*%
%TO.N,GND*%
X179270000Y-84120000D03*
%TO.P,J1,A5,A5*%
%TO.N,/SD*%
X179270000Y-82850000D03*
%TO.P,J1,A6,A6*%
%TO.N,GND*%
X179270000Y-81580000D03*
%TO.P,J1,B1,B1*%
%TO.N,unconnected-(J1-PadB1)*%
X173770000Y-87930000D03*
%TO.P,J1,B2,B2*%
%TO.N,unconnected-(J1-PadB2)*%
X173770000Y-86660000D03*
%TO.P,J1,B3,B3*%
%TO.N,/SCL*%
X173770000Y-85390000D03*
%TO.P,J1,B4,B4*%
%TO.N,/SDA*%
X173770000Y-84120000D03*
%TO.P,J1,B5,B5*%
%TO.N,/SCK*%
X173770000Y-82850000D03*
%TO.P,J1,B6,B6*%
%TO.N,/MCLK*%
X173770000Y-81580000D03*
D15*
%TO.P,J1,MP1,MP1*%
%TO.N,unconnected-(J1-PadMP1)*%
X178970000Y-90425000D03*
%TO.P,J1,MP2,MP2*%
%TO.N,unconnected-(J1-PadMP2)*%
X178970000Y-79085000D03*
%TO.P,J1,MP3,MP3*%
%TO.N,unconnected-(J1-PadMP3)*%
X174070000Y-90425000D03*
%TO.P,J1,MP4,MP4*%
%TO.N,unconnected-(J1-PadMP4)*%
X174070000Y-79085000D03*
%TD*%
D16*
%TO.N,/SDA*%
X154800000Y-85930000D03*
%TO.N,GND*%
X183900000Y-84120000D03*
X183580000Y-81560000D03*
%TO.N,+3.3V*%
X185410000Y-92510000D03*
%TD*%
D17*
%TO.N,/SDA*%
X155610000Y-86740000D02*
X154800000Y-85930000D01*
X155610000Y-88060000D02*
X155610000Y-86740000D01*
%TO.N,/SCL*%
X173250000Y-84870000D02*
X173770000Y-85390000D01*
X172870000Y-84870000D02*
X173250000Y-84870000D01*
X172820000Y-84820000D02*
X172870000Y-84870000D01*
X147500000Y-84820000D02*
X172820000Y-84820000D01*
X145450000Y-86870000D02*
X147500000Y-84820000D01*
%TO.N,GND*%
X179270000Y-84120000D02*
X183900000Y-84120000D01*
X183560000Y-81580000D02*
X183580000Y-81560000D01*
X179270000Y-81580000D02*
X183560000Y-81580000D01*
%TO.N,+3.3V*%
X184780000Y-93140000D02*
X185410000Y-92510000D01*
X155580000Y-93170000D02*
X155610000Y-93140000D01*
%TO.N,/SDA*%
X145660000Y-84120000D02*
X145450000Y-84330000D01*
X173770000Y-84120000D02*
X145660000Y-84120000D01*
%TO.N,/SCK*%
X146510000Y-82850000D02*
X145450000Y-81790000D01*
X173770000Y-82850000D02*
X146510000Y-82850000D01*
%TO.N,/MCLK*%
X171440000Y-79250000D02*
X173770000Y-81580000D01*
X145450000Y-79250000D02*
X171440000Y-79250000D01*
%TO.N,/VIN*%
X187360000Y-87930000D02*
X179270000Y-87930000D01*
X190730000Y-91300000D02*
X187360000Y-87930000D01*
%TO.N,+3.3V*%
X188630000Y-86660000D02*
X179270000Y-86660000D01*
X190730000Y-88760000D02*
X188630000Y-86660000D01*
%TO.N,/FS*%
X189900000Y-85390000D02*
X190730000Y-86220000D01*
X179270000Y-85390000D02*
X189900000Y-85390000D01*
%TO.N,/SD*%
X189900000Y-82850000D02*
X190730000Y-83680000D01*
X179270000Y-82850000D02*
X189900000Y-82850000D01*
%TO.N,/SCL*%
X146670000Y-88090000D02*
X145450000Y-86870000D01*
X151860000Y-88090000D02*
X146670000Y-88090000D01*
%TO.N,+3.3V*%
X155610000Y-93140000D02*
X184780000Y-93140000D01*
X151860000Y-93170000D02*
X155580000Y-93170000D01*
%TD*%
M02*
