%TF.GenerationSoftware,KiCad,Pcbnew,8.0.4*%
%TF.CreationDate,2024-09-07T22:41:43+02:00*%
%TF.ProjectId,PCB,5043422e-6b69-4636-9164-5f7063625858,rev?*%
%TF.SameCoordinates,Original*%
%TF.FileFunction,Legend,Bot*%
%TF.FilePolarity,Positive*%
%FSLAX46Y46*%
G04 Gerber Fmt 4.6, Leading zero omitted, Abs format (unit mm)*
G04 Created by KiCad (PCBNEW 8.0.4) date 2024-09-07 22:41:43*
%MOMM*%
%LPD*%
G01*
G04 APERTURE LIST*
%ADD10C,0.100000*%
G04 APERTURE END LIST*
D10*
X184106115Y-92732475D02*
X184106115Y-91732475D01*
X184106115Y-91732475D02*
X183534687Y-92732475D01*
X183534687Y-92732475D02*
X183534687Y-91732475D01*
X182915639Y-92732475D02*
X183010877Y-92684856D01*
X183010877Y-92684856D02*
X183058496Y-92637236D01*
X183058496Y-92637236D02*
X183106115Y-92541998D01*
X183106115Y-92541998D02*
X183106115Y-92256284D01*
X183106115Y-92256284D02*
X183058496Y-92161046D01*
X183058496Y-92161046D02*
X183010877Y-92113427D01*
X183010877Y-92113427D02*
X182915639Y-92065808D01*
X182915639Y-92065808D02*
X182772782Y-92065808D01*
X182772782Y-92065808D02*
X182677544Y-92113427D01*
X182677544Y-92113427D02*
X182629925Y-92161046D01*
X182629925Y-92161046D02*
X182582306Y-92256284D01*
X182582306Y-92256284D02*
X182582306Y-92541998D01*
X182582306Y-92541998D02*
X182629925Y-92637236D01*
X182629925Y-92637236D02*
X182677544Y-92684856D01*
X182677544Y-92684856D02*
X182772782Y-92732475D01*
X182772782Y-92732475D02*
X182915639Y-92732475D01*
X182296591Y-92065808D02*
X181915639Y-92065808D01*
X182153734Y-91732475D02*
X182153734Y-92589617D01*
X182153734Y-92589617D02*
X182106115Y-92684856D01*
X182106115Y-92684856D02*
X182010877Y-92732475D01*
X182010877Y-92732475D02*
X181915639Y-92732475D01*
X181201353Y-92684856D02*
X181296591Y-92732475D01*
X181296591Y-92732475D02*
X181487067Y-92732475D01*
X181487067Y-92732475D02*
X181582305Y-92684856D01*
X181582305Y-92684856D02*
X181629924Y-92589617D01*
X181629924Y-92589617D02*
X181629924Y-92208665D01*
X181629924Y-92208665D02*
X181582305Y-92113427D01*
X181582305Y-92113427D02*
X181487067Y-92065808D01*
X181487067Y-92065808D02*
X181296591Y-92065808D01*
X181296591Y-92065808D02*
X181201353Y-92113427D01*
X181201353Y-92113427D02*
X181153734Y-92208665D01*
X181153734Y-92208665D02*
X181153734Y-92303903D01*
X181153734Y-92303903D02*
X181629924Y-92399141D01*
X180725162Y-92637236D02*
X180677543Y-92684856D01*
X180677543Y-92684856D02*
X180725162Y-92732475D01*
X180725162Y-92732475D02*
X180772781Y-92684856D01*
X180772781Y-92684856D02*
X180725162Y-92637236D01*
X180725162Y-92637236D02*
X180725162Y-92732475D01*
X180725162Y-92113427D02*
X180677543Y-92161046D01*
X180677543Y-92161046D02*
X180725162Y-92208665D01*
X180725162Y-92208665D02*
X180772781Y-92161046D01*
X180772781Y-92161046D02*
X180725162Y-92113427D01*
X180725162Y-92113427D02*
X180725162Y-92208665D01*
X184248972Y-93342419D02*
X183915639Y-94342419D01*
X183915639Y-94342419D02*
X183582306Y-93342419D01*
X183248972Y-94342419D02*
X183248972Y-93342419D01*
X182772782Y-94342419D02*
X182772782Y-93342419D01*
X182772782Y-93342419D02*
X182201354Y-94342419D01*
X182201354Y-94342419D02*
X182201354Y-93342419D01*
X181725163Y-93818609D02*
X180963259Y-93818609D01*
X180963259Y-94104323D02*
X181725163Y-94104323D01*
X180582306Y-93342419D02*
X179963259Y-93342419D01*
X179963259Y-93342419D02*
X180296592Y-93723371D01*
X180296592Y-93723371D02*
X180153735Y-93723371D01*
X180153735Y-93723371D02*
X180058497Y-93770990D01*
X180058497Y-93770990D02*
X180010878Y-93818609D01*
X180010878Y-93818609D02*
X179963259Y-93913847D01*
X179963259Y-93913847D02*
X179963259Y-94151942D01*
X179963259Y-94151942D02*
X180010878Y-94247180D01*
X180010878Y-94247180D02*
X180058497Y-94294800D01*
X180058497Y-94294800D02*
X180153735Y-94342419D01*
X180153735Y-94342419D02*
X180439449Y-94342419D01*
X180439449Y-94342419D02*
X180534687Y-94294800D01*
X180534687Y-94294800D02*
X180582306Y-94247180D01*
X179677544Y-93342419D02*
X179344211Y-94342419D01*
X179344211Y-94342419D02*
X179010878Y-93342419D01*
X178772782Y-93342419D02*
X178153735Y-93342419D01*
X178153735Y-93342419D02*
X178487068Y-93723371D01*
X178487068Y-93723371D02*
X178344211Y-93723371D01*
X178344211Y-93723371D02*
X178248973Y-93770990D01*
X178248973Y-93770990D02*
X178201354Y-93818609D01*
X178201354Y-93818609D02*
X178153735Y-93913847D01*
X178153735Y-93913847D02*
X178153735Y-94151942D01*
X178153735Y-94151942D02*
X178201354Y-94247180D01*
X178201354Y-94247180D02*
X178248973Y-94294800D01*
X178248973Y-94294800D02*
X178344211Y-94342419D01*
X178344211Y-94342419D02*
X178629925Y-94342419D01*
X178629925Y-94342419D02*
X178725163Y-94294800D01*
X178725163Y-94294800D02*
X178772782Y-94247180D01*
X177725163Y-94247180D02*
X177677544Y-94294800D01*
X177677544Y-94294800D02*
X177725163Y-94342419D01*
X177725163Y-94342419D02*
X177772782Y-94294800D01*
X177772782Y-94294800D02*
X177725163Y-94247180D01*
X177725163Y-94247180D02*
X177725163Y-94342419D01*
X177725163Y-93723371D02*
X177677544Y-93770990D01*
X177677544Y-93770990D02*
X177725163Y-93818609D01*
X177725163Y-93818609D02*
X177772782Y-93770990D01*
X177772782Y-93770990D02*
X177725163Y-93723371D01*
X177725163Y-93723371D02*
X177725163Y-93818609D01*
X176772783Y-93342419D02*
X177248973Y-93342419D01*
X177248973Y-93342419D02*
X177296592Y-93818609D01*
X177296592Y-93818609D02*
X177248973Y-93770990D01*
X177248973Y-93770990D02*
X177153735Y-93723371D01*
X177153735Y-93723371D02*
X176915640Y-93723371D01*
X176915640Y-93723371D02*
X176820402Y-93770990D01*
X176820402Y-93770990D02*
X176772783Y-93818609D01*
X176772783Y-93818609D02*
X176725164Y-93913847D01*
X176725164Y-93913847D02*
X176725164Y-94151942D01*
X176725164Y-94151942D02*
X176772783Y-94247180D01*
X176772783Y-94247180D02*
X176820402Y-94294800D01*
X176820402Y-94294800D02*
X176915640Y-94342419D01*
X176915640Y-94342419D02*
X177153735Y-94342419D01*
X177153735Y-94342419D02*
X177248973Y-94294800D01*
X177248973Y-94294800D02*
X177296592Y-94247180D01*
X176439449Y-93342419D02*
X176106116Y-94342419D01*
X176106116Y-94342419D02*
X175772783Y-93342419D01*
X150153734Y-84244800D02*
X150010877Y-84292419D01*
X150010877Y-84292419D02*
X149772782Y-84292419D01*
X149772782Y-84292419D02*
X149677544Y-84244800D01*
X149677544Y-84244800D02*
X149629925Y-84197180D01*
X149629925Y-84197180D02*
X149582306Y-84101942D01*
X149582306Y-84101942D02*
X149582306Y-84006704D01*
X149582306Y-84006704D02*
X149629925Y-83911466D01*
X149629925Y-83911466D02*
X149677544Y-83863847D01*
X149677544Y-83863847D02*
X149772782Y-83816228D01*
X149772782Y-83816228D02*
X149963258Y-83768609D01*
X149963258Y-83768609D02*
X150058496Y-83720990D01*
X150058496Y-83720990D02*
X150106115Y-83673371D01*
X150106115Y-83673371D02*
X150153734Y-83578133D01*
X150153734Y-83578133D02*
X150153734Y-83482895D01*
X150153734Y-83482895D02*
X150106115Y-83387657D01*
X150106115Y-83387657D02*
X150058496Y-83340038D01*
X150058496Y-83340038D02*
X149963258Y-83292419D01*
X149963258Y-83292419D02*
X149725163Y-83292419D01*
X149725163Y-83292419D02*
X149582306Y-83340038D01*
X149153734Y-84292419D02*
X149153734Y-83292419D01*
X149153734Y-83292419D02*
X148915639Y-83292419D01*
X148915639Y-83292419D02*
X148772782Y-83340038D01*
X148772782Y-83340038D02*
X148677544Y-83435276D01*
X148677544Y-83435276D02*
X148629925Y-83530514D01*
X148629925Y-83530514D02*
X148582306Y-83720990D01*
X148582306Y-83720990D02*
X148582306Y-83863847D01*
X148582306Y-83863847D02*
X148629925Y-84054323D01*
X148629925Y-84054323D02*
X148677544Y-84149561D01*
X148677544Y-84149561D02*
X148772782Y-84244800D01*
X148772782Y-84244800D02*
X148915639Y-84292419D01*
X148915639Y-84292419D02*
X149153734Y-84292419D01*
X148201353Y-84006704D02*
X147725163Y-84006704D01*
X148296591Y-84292419D02*
X147963258Y-83292419D01*
X147963258Y-83292419D02*
X147629925Y-84292419D01*
X187982782Y-85408609D02*
X188316115Y-85408609D01*
X188316115Y-85932419D02*
X188316115Y-84932419D01*
X188316115Y-84932419D02*
X187839925Y-84932419D01*
X187506591Y-85884800D02*
X187363734Y-85932419D01*
X187363734Y-85932419D02*
X187125639Y-85932419D01*
X187125639Y-85932419D02*
X187030401Y-85884800D01*
X187030401Y-85884800D02*
X186982782Y-85837180D01*
X186982782Y-85837180D02*
X186935163Y-85741942D01*
X186935163Y-85741942D02*
X186935163Y-85646704D01*
X186935163Y-85646704D02*
X186982782Y-85551466D01*
X186982782Y-85551466D02*
X187030401Y-85503847D01*
X187030401Y-85503847D02*
X187125639Y-85456228D01*
X187125639Y-85456228D02*
X187316115Y-85408609D01*
X187316115Y-85408609D02*
X187411353Y-85360990D01*
X187411353Y-85360990D02*
X187458972Y-85313371D01*
X187458972Y-85313371D02*
X187506591Y-85218133D01*
X187506591Y-85218133D02*
X187506591Y-85122895D01*
X187506591Y-85122895D02*
X187458972Y-85027657D01*
X187458972Y-85027657D02*
X187411353Y-84980038D01*
X187411353Y-84980038D02*
X187316115Y-84932419D01*
X187316115Y-84932419D02*
X187078020Y-84932419D01*
X187078020Y-84932419D02*
X186935163Y-84980038D01*
M02*
